<svg height="494" width="720" xmlns="http://www.w3.org/2000/svg">
<rect height="494" fill="#555" width="720"></rect>
<text fill="#7f7" font-family="Courier New" font-size="12" xml:space="preserve">
<tspan x="10" y="26">5 megabytes installed</tspan>
<tspan x="10" y="42"></tspan>
<tspan x="10" y="58">node_modules</tspan>
<tspan x="10" y="74">├── UNMET PEER DEPENDENCY grunt@~0.4.0</tspan>
<tspan x="10" y="90">└─┬ grunt-bower-install@1.6.0 </tspan>
<tspan x="10" y="106">  ├─┬ bower-config@0.5.2 </tspan>
<tspan x="10" y="122">  │ ├── graceful-fs@2.0.3 </tspan>
<tspan x="10" y="138">  │ ├── mout@0.9.1 </tspan>
<tspan x="10" y="154">  │ ├─┬ optimist@0.6.1 </tspan>
<tspan x="10" y="170">  │ │ ├── minimist@0.0.10 </tspan>
<tspan x="10" y="186">  │ │ └── wordwrap@0.0.3 </tspan>
<tspan x="10" y="202">  │ └── osenv@0.0.3 </tspan>
<tspan x="10" y="218">  └─┬ wiredep@1.5.0 </tspan>
<tspan x="10" y="234">    ├─┬ chalk@0.1.1 </tspan>
<tspan x="10" y="250">    │ ├── ansi-styles@0.1.2 </tspan>
<tspan x="10" y="266">    │ └── has-color@0.1.7 </tspan>
<tspan x="10" y="282">    ├─┬ glob@3.2.11 </tspan>
<tspan x="10" y="298">    │ ├── inherits@2.0.3 </tspan>
<tspan x="10" y="314">    │ └─┬ minimatch@0.3.0 </tspan>
<tspan x="10" y="330">    │   ├── lru-cache@2.7.3 </tspan>
<tspan x="10" y="346">    │   └── sigmund@1.0.1 </tspan>
<tspan x="10" y="362">    ├── lodash@1.3.1 </tspan>
<tspan x="10" y="378">    └─┬ through2@0.4.2 </tspan>
<tspan x="10" y="394">      ├─┬ readable-stream@1.0.34 </tspan>
<tspan x="10" y="410">      │ ├── core-util-is@1.0.2 </tspan>
<tspan x="10" y="426">      │ ├── isarray@0.0.1 </tspan>
<tspan x="10" y="442">      │ └── string_decoder@0.10.31 </tspan>
<tspan x="10" y="458">      └─┬ xtend@2.1.2 </tspan>
<tspan x="10" y="474">        └── object-keys@0.4.0</tspan>
</text>
</svg>
